<svg xmlns="http://www.w3.org/2000/svg" viewBox="0 0 64 64" width="64" height="64">
  <!-- 牌桌金棕风格的简洁机器人线稿图标 -->
  <g fill="none" stroke="#f5df9c" stroke-linecap="round" stroke-linejoin="round">
    <path d="M32 13V8" stroke-width="3"/>
    <circle cx="32" cy="5.5" r="3" fill="#d2aa58" stroke-width="2"/>
    <rect x="11" y="16" width="42" height="36" rx="10" fill="#2e2519" stroke-width="3"/>
    <path d="M11 27H7.5a2 2 0 0 0-2 2v10a2 2 0 0 0 2 2H11M53 27h3.5a2 2 0 0 1 2 2v10a2 2 0 0 1-2 2H53" stroke-width="3"/>
    <rect x="20" y="26" width="7" height="7" rx="2" fill="#f5df9c" stroke="none"/>
    <rect x="37" y="26" width="7" height="7" rx="2" fill="#f5df9c" stroke="none"/>
    <path d="M22 42h20M27 42v4M32 42v4M37 42v4" stroke-width="2.5"/>
  </g>
</svg>
